<svg width="14" height="14" viewBox="0 0 14 14" fill="none" xmlns="http://www.w3.org/2000/svg">
<g id="Icon">
<path id="Vector" fill-rule="evenodd" clip-rule="evenodd" d="M2.54229 3.56394C2.53235 3.45393 2.54543 3.34304 2.58071 3.23836C2.61599 3.13368 2.67269 3.0375 2.74719 2.95594C2.82169 2.87438 2.91237 2.80924 3.01344 2.76466C3.11451 2.72008 3.22376 2.69705 3.33422 2.69702H12.976C13.0951 2.69707 13.2127 2.72386 13.32 2.77542C13.4274 2.82698 13.5218 2.90198 13.5962 2.99489C13.6707 3.08781 13.7234 3.19627 13.7504 3.31226C13.7773 3.42825 13.7779 3.54882 13.7521 3.66506L12.9374 7.33727C12.7972 7.96833 12.446 8.53272 11.9418 8.9372C11.4375 9.34168 10.8104 9.56207 10.1639 9.56195H5.67934C4.97022 9.56199 4.28673 9.29679 3.76321 8.81848C3.2397 8.34016 2.91402 7.68333 2.8502 6.97709L2.54229 3.56394ZM3.7069 3.83322L3.98186 6.87483C4.02017 7.29877 4.21573 7.69303 4.53008 7.98005C4.84443 8.26706 5.25481 8.42606 5.68048 8.42575H10.1651C10.5528 8.42565 10.929 8.29332 11.2314 8.0506C11.5338 7.80787 11.7444 7.46928 11.8285 7.09071L12.5522 3.83322H3.7069Z" fill="white"/>
<path id="Vector_2" fill-rule="evenodd" clip-rule="evenodd" d="M0.192719 0.790146C0.192719 0.639477 0.252572 0.494978 0.359111 0.388439C0.465651 0.281899 0.610149 0.222046 0.760819 0.222046H2.75372C2.89268 0.222187 3.02677 0.273256 3.13062 0.36559C3.23447 0.457924 3.30087 0.585119 3.31727 0.723111L3.77402 4.58733C3.79165 4.7371 3.74906 4.88773 3.65563 5.0061C3.56219 5.12446 3.42557 5.20086 3.2758 5.21849C3.12603 5.23612 2.9754 5.19353 2.85703 5.1001C2.73867 5.00666 2.66227 4.87003 2.64464 4.72027L2.24811 1.35711H0.760819C0.610149 1.35711 0.465651 1.29726 0.359111 1.19072C0.252572 1.08418 0.192719 0.940816 0.192719 0.790146ZM5.30562 12.5305C5.45629 12.5305 5.60079 12.4707 5.70733 12.3641C5.81387 12.2576 5.87372 12.1131 5.87372 11.9624C5.87372 11.8117 5.81387 11.6672 5.70733 11.5607C5.60079 11.4542 5.45629 11.3943 5.30562 11.3943C5.15495 11.3943 5.01046 11.4542 4.90392 11.5607C4.79738 11.6672 4.73752 11.8117 4.73752 11.9624C4.73752 12.1131 4.79738 12.2576 4.90392 12.3641C5.01046 12.4707 5.15495 12.5305 5.30562 12.5305ZM5.30562 13.6667C5.52944 13.6667 5.75106 13.6226 5.95783 13.537C6.16461 13.4513 6.35249 13.3258 6.51075 13.1675C6.66901 13.0093 6.79454 12.8214 6.88019 12.6146C6.96584 12.4078 7.00992 12.1862 7.00992 11.9624C7.00992 11.7386 6.96584 11.517 6.88019 11.3102C6.79454 11.1034 6.66901 10.9155 6.51075 10.7573C6.35249 10.599 6.16461 10.4735 5.95783 10.3878C5.75106 10.3022 5.52944 10.2581 5.30562 10.2581C4.85361 10.2581 4.42012 10.4377 4.1005 10.7573C3.78088 11.0769 3.60132 11.5104 3.60132 11.9624C3.60132 12.4144 3.78088 12.8479 4.1005 13.1675C4.42012 13.4872 4.85361 13.6667 5.30562 13.6667ZM10.489 12.5305C10.6396 12.5305 10.7841 12.4707 10.8907 12.3641C10.9972 12.2576 11.0571 12.1131 11.0571 11.9624C11.0571 11.8117 10.9972 11.6672 10.8907 11.5607C10.7841 11.4542 10.6396 11.3943 10.489 11.3943C10.3383 11.3943 10.1938 11.4542 10.0873 11.5607C9.98073 11.6672 9.92087 11.8117 9.92087 11.9624C9.92087 12.1131 9.98073 12.2576 10.0873 12.3641C10.1938 12.4707 10.3383 12.5305 10.489 12.5305ZM10.489 13.6667C10.7128 13.6667 10.9344 13.6226 11.1412 13.537C11.348 13.4513 11.5358 13.3258 11.6941 13.1675C11.8524 13.0093 11.9779 12.8214 12.0635 12.6146C12.1492 12.4078 12.1933 12.1862 12.1933 11.9624C12.1933 11.7386 12.1492 11.517 12.0635 11.3102C11.9779 11.1034 11.8524 10.9155 11.6941 10.7573C11.5358 10.599 11.348 10.4735 11.1412 10.3878C10.9344 10.3022 10.7128 10.2581 10.489 10.2581C10.037 10.2581 9.60347 10.4377 9.28385 10.7573C8.96423 11.0769 8.78467 11.5104 8.78467 11.9624C8.78467 12.4144 8.96423 12.8479 9.28385 13.1675C9.60347 13.4872 10.037 13.6667 10.489 13.6667Z" fill="white"/>
</g>
</svg>
