<svg width="13" height="14" viewBox="0 0 13 14" fill="none" xmlns="http://www.w3.org/2000/svg">
<g id="Icon">
<path id="Vector" d="M12.9814 5.50829C12.9366 5.3704 12.8174 5.2699 12.674 5.24908L8.6439 4.66345L6.84156 1.01161C6.77742 0.881607 6.64501 0.799316 6.50005 0.799316C6.35507 0.799316 6.22269 0.881607 6.15852 1.01161L4.3561 4.66345L0.326118 5.24908C0.182687 5.2699 0.0634781 5.3704 0.0186892 5.50827C-0.0261251 5.64616 0.0112498 5.79752 0.115072 5.8987L3.03112 8.74127L2.34284 12.7551C2.31831 12.898 2.37706 13.0423 2.49434 13.1276C2.56069 13.1758 2.63927 13.2003 2.71824 13.2003C2.77887 13.2003 2.8397 13.1859 2.89541 13.1566L6.50003 11.2615L10.1045 13.1565C10.2328 13.224 10.3883 13.2128 10.5056 13.1276C10.6229 13.0423 10.6816 12.8979 10.6571 12.755L9.96863 8.74127L12.885 5.89867C12.9888 5.79752 13.0262 5.64616 12.9814 5.50829Z" fill="#D6D6D6"/>
</g>
</svg>
